# xmcd CD database file
#
# Track frame offsets:
#	150
#	59743
#	142830
#	197585
#	236660
#
# Disc length: 4391 seconds
#
# Revision: 7
# Processed by: cddbd v1.5.2PL0 Copyright (c) Steve Scherf et al.
# Submitted via: CDex 1.51
#
DISCID=43112505
DTITLE=Keith Jarrett - Fort Yawuh  { New York City on February 24, 1973 }
DYEAR=1999
DGENRE=Jazz
TTITLE0=(If the)  Misfits  (Wear it)
TTITLE1=Fort Yawuh
TTITLE2=De Drums
TTITLE3=Still Life, Still Life
TTITLE4=Roads Travelled, Roads Veiled
EXTD=YEAR: 1999
EXTT0=
EXTT1=
EXTT2=
EXTT3=
EXTT4=
PLAYORDER=
